<?xml version="1.0" standalone="no"?>
<!DOCTYPE svg PUBLIC "-//W3C//DTD SVG 20010904//EN"
 "http://www.w3.org/TR/2001/REC-SVG-20010904/DTD/svg10.dtd">
<svg version="1.0" xmlns="http://www.w3.org/2000/svg"
 width="1280.000000pt" height="1280.000000pt" viewBox="0 0 1280.000000 1280.000000"
 preserveAspectRatio="xMidYMid meet">
<metadata>
Created by potrace 1.15, written by Peter Selinger 2001-2017
</metadata>
<g transform="translate(0.000000,1280.000000) scale(0.100000,-0.100000)"
fill="#000000" stroke="none">
<path d="M6100 12794 c-463 -31 -741 -68 -1090 -145 -865 -191 -1718 -582
-2430 -1114 -1404 -1050 -2317 -2613 -2529 -4335 -32 -256 -41 -384 -48 -665
-21 -907 151 -1803 509 -2647 74 -175 262 -548 358 -713 924 -1578 2489 -2696
4270 -3050 1522 -303 3088 -50 4426 714 377 215 722 460 1049 745 152 132 453
434 592 592 1184 1351 1743 3107 1558 4893 -67 639 -225 1250 -480 1851 -72
168 -261 544 -355 705 -952 1625 -2575 2756 -4420 3079 -352 62 -624 86 -1030
90 -179 2 -350 2 -380 0z m575 -574 c1305 -69 2469 -526 3475 -1364 170 -142
523 -490 669 -661 691 -808 1151 -1787 1326 -2823 204 -1204 23 -2447 -515
-3537 -290 -588 -639 -1073 -1110 -1546 -341 -342 -649 -588 -1044 -834 -782
-489 -1636 -773 -2586 -861 -252 -24 -728 -24 -980 0 -993 91 -1876 395 -2685
924 -1103 721 -1931 1787 -2346 3022 -414 1234 -408 2535 16 3767 227 660 577
1276 1049 1843 156 189 521 553 711 711 598 497 1227 846 1954 1084 652 213
1385 311 2066 275z"/>
<path d="M3403 9415 c-79 -17 -177 -64 -242 -115 l-51 -40 0 -285 0 -285 73
50 c108 73 191 102 314 108 166 8 283 -23 602 -160 230 -98 328 -133 431 -152
191 -37 359 0 507 110 l53 39 0 286 0 287 -79 -53 c-103 -69 -181 -96 -302
-102 -167 -9 -275 19 -603 158 -374 159 -525 193 -703 154z"/>
<path d="M9060 9415 c-107 -22 -221 -62 -418 -147 -328 -141 -454 -174 -621
-165 -121 6 -200 33 -303 103 l-78 53 0 -287 0 -287 53 -39 c148 -110 316
-147 507 -110 103 19 201 54 433 153 313 134 436 167 600 159 123 -6 206 -35
314 -108 l73 -50 0 285 0 285 -51 40 c-139 110 -326 152 -509 115z"/>
<path d="M3972 8196 c-134 -33 -275 -141 -339 -263 -107 -199 -78 -447 70
-610 243 -266 651 -232 849 71 54 83 79 171 79 277 0 106 -13 164 -60 254
-110 214 -363 328 -599 271z"/>
<path d="M8503 8196 c-182 -44 -332 -190 -387 -376 -21 -70 -21 -207 -1 -284
46 -174 200 -327 380 -377 73 -21 227 -16 297 8 173 60 319 216 357 383 15 66
13 197 -4 265 -49 186 -216 346 -403 384 -68 14 -173 13 -239 -3z"/>
<path d="M8270 4850 c-41 -11 -167 -65 -280 -120 -251 -121 -306 -140 -416
-140 -139 0 -238 30 -484 148 -206 99 -352 131 -501 112 -101 -12 -142 -27
-359 -130 -233 -111 -306 -134 -425 -134 -116 -1 -174 19 -409 135 -100 49
-218 101 -264 116 -73 23 -95 25 -185 21 -125 -6 -227 -38 -437 -138 -80 -38
-174 -78 -210 -89 -144 -45 -307 -46 -434 -3 -31 10 -58 17 -61 14 -2 -3 -4
-157 -4 -342 0 -271 2 -340 13 -349 7 -6 51 -21 97 -32 70 -18 102 -21 194
-16 143 8 197 23 386 112 203 95 311 133 423 147 130 16 205 -5 466 -131 254
-123 282 -133 401 -139 131 -6 204 16 464 138 246 115 325 137 465 127 119 -9
212 -38 382 -118 188 -88 233 -106 332 -130 98 -23 187 -24 270 -3 33 8 158
62 276 119 118 57 249 113 290 125 158 43 278 19 553 -111 93 -43 170 -79 173
-79 2 0 4 156 4 346 l0 345 -162 79 c-274 132 -408 160 -558 120z"/>
</g>
</svg>
